<mxfile host="app.diagrams.net" modified="2024-06-02T18:24:03.319Z" agent="Mozilla/5.0 (Windows NT 10.0; Win64; x64) AppleWebKit/537.36 (KHTML, like Gecko) Chrome/125.0.0.0 Safari/537.36" version="24.4.13" etag="QLGozzOWoGb5wjKz5rXB" type="github">
  <diagram name="PÃ¡gina-1" id="NVwsWcLb-dap5qU7iXU-">
    <mxGraphModel>
      <root>
        <mxCell id="0" />
        <mxCell id="1" parent="0" />
      </root>
    </mxGraphModel>
  </diagram>
</mxfile>
